<svg width="170" height="58" viewBox="0 0 170 58" fill="none" xmlns="http://www.w3.org/2000/svg">
<rect y="-0.00488281" width="170" height="58" rx="20" fill="#FF5722"/>
<mask id="mask0_70_2584" style="mask-type:luminance" maskUnits="userSpaceOnUse" x="0" y="-1" width="170" height="59">
<rect y="-0.00488281" width="170" height="58" rx="20" fill="white"/>
</mask>
<g mask="url(#mask0_70_2584)">
<path fill-rule="evenodd" clip-rule="evenodd" d="M32.5553 17.0732C33.6407 15.7158 34.3834 13.8691 34.1772 11.9951C32.6062 12.0647 30.6416 13.0818 29.5102 14.4093C28.5093 15.5792 27.6151 17.4966 27.8461 19.2998C29.6108 19.4315 31.4227 18.4094 32.5553 17.0732ZM36.5293 28.8437C36.4936 24.871 39.7573 22.9231 39.9542 22.8055L39.9582 22.8032C38.0817 20.0673 35.1732 19.6935 34.1511 19.6637C32.6567 19.5064 31.1896 20.0887 29.9909 20.5645C29.2302 20.8664 28.5776 21.1254 28.0945 21.1254C27.5445 21.1254 26.873 20.8556 26.1205 20.5532C25.1366 20.1579 24.0141 19.7069 22.8438 19.7308C20.1862 19.7718 17.7 21.3104 16.3364 23.6998C13.5223 28.5717 15.6211 35.7311 18.3172 39.6691C19.6659 41.599 21.2418 43.7512 23.3046 43.6754C24.2407 43.6374 24.9048 43.3578 25.5909 43.0689C26.3838 42.7351 27.2062 42.3889 28.5118 42.3889C29.7433 42.3889 30.5307 42.724 31.2862 43.0456C32.0109 43.3541 32.7063 43.6501 33.7363 43.6258C35.9022 43.5935 37.2658 41.6897 38.5672 39.7424C40.1258 37.5344 40.7517 35.3549 40.7766 35.2431C40.7269 35.2269 36.5716 33.6411 36.5293 28.8437ZM54.8938 13.0647H51.9785V21.7384H54.8938C57.4725 21.7384 58.9872 20.1335 58.9872 17.3986C58.9872 14.6696 57.4665 13.0647 54.8938 13.0647ZM53.0607 14.0384V20.7646H54.8219C56.7875 20.7646 57.8815 19.5625 57.8815 17.4106C57.8815 15.2406 56.7935 14.0384 54.8219 14.0384H53.0607ZM60.2694 18.6127C60.2694 20.6024 61.4355 21.8466 63.1667 21.8466C64.8918 21.8466 66.0579 20.6024 66.0579 18.6127C66.0579 16.6171 64.8918 15.3789 63.1667 15.3789C61.4355 15.3789 60.2694 16.6171 60.2694 18.6127ZM63.1663 20.9269C64.2723 20.9269 64.9936 20.0854 64.9936 18.6128C64.9936 17.1401 64.2723 16.2986 63.1663 16.2986C62.0603 16.2986 61.333 17.1401 61.333 18.6128C61.333 20.0854 62.0603 20.9269 63.1663 20.9269ZM73.729 21.7384L75.4721 15.4871H74.4383L73.188 20.5723H73.1639L71.7454 15.4871H70.7355L69.323 20.5723H69.2989L68.0487 15.4871H67.0088L68.758 21.7384H69.8219L71.2284 16.8996H71.2525L72.665 21.7384H73.729ZM76.7365 15.4871H77.7223V16.4849H77.7463C78.0949 15.8117 78.7621 15.3789 79.7299 15.3789C81.1004 15.3789 81.8938 16.2625 81.8938 17.6811V21.7384H80.8479V17.8674C80.8479 16.8576 80.3731 16.3046 79.4113 16.3046C78.4255 16.3046 77.7824 17.0018 77.7824 18.0597V21.7384H76.7365V15.4871ZM83.6867 13.0647V21.7384H84.7326V13.0647H83.6867ZM89.1462 21.8466C87.415 21.8466 86.2489 20.6024 86.2489 18.6127C86.2489 16.6171 87.415 15.3789 89.1462 15.3789C90.8713 15.3789 92.0374 16.6171 92.0374 18.6127C92.0374 20.6024 90.8713 21.8466 89.1462 21.8466ZM90.9731 18.6128C90.9731 20.0854 90.2518 20.9269 89.1458 20.9269C88.0398 20.9269 87.3125 20.0854 87.3125 18.6128C87.3125 17.1401 88.0398 16.2986 89.1458 16.2986C90.2518 16.2986 90.9731 17.1401 90.9731 18.6128ZM95.327 21.8466C94.0827 21.8466 93.2472 21.0952 93.2472 19.9712C93.2472 18.9013 94.0707 18.228 95.5133 18.1439L97.3046 18.0417V17.5188C97.3046 16.7554 96.7997 16.2985 95.9341 16.2985C95.1286 16.2985 94.6237 16.6772 94.4915 17.2903H93.4816C93.5538 16.2084 94.4794 15.3789 95.9581 15.3789C97.4248 15.3789 98.3505 16.1723 98.3505 17.4166V21.7384H97.3587V20.6625H97.3346C96.9619 21.3778 96.1685 21.8466 95.327 21.8466ZM97.305 19.3641C97.305 20.2657 96.5476 20.957 95.5618 20.957C94.8104 20.957 94.3115 20.5663 94.3115 19.9712C94.3115 19.3821 94.7924 19.0095 95.6339 18.9554L97.305 18.8532V19.3641ZM102.457 21.8466C100.864 21.8466 99.7822 20.5723 99.7822 18.6128C99.7822 16.6532 100.858 15.3789 102.433 15.3789C103.329 15.3789 104.05 15.8177 104.423 16.5029H104.447V13.0647H105.493V21.7384H104.495V20.6805H104.477C104.074 21.4018 103.359 21.8466 102.457 21.8466ZM100.853 18.6127C100.853 17.2002 101.55 16.2985 102.656 16.2985C103.732 16.2985 104.453 17.2182 104.453 18.6127C104.453 20.0133 103.732 20.9269 102.656 20.9269C101.55 20.9269 100.853 20.0313 100.853 18.6127ZM112.842 21.8466C111.11 21.8466 109.944 20.6024 109.944 18.6127C109.944 16.6171 111.11 15.3789 112.842 15.3789C114.567 15.3789 115.733 16.6171 115.733 18.6127C115.733 20.6024 114.567 21.8466 112.842 21.8466ZM114.668 18.6128C114.668 20.0854 113.947 20.9269 112.841 20.9269C111.735 20.9269 111.008 20.0854 111.008 18.6128C111.008 17.1401 111.735 16.2986 112.841 16.2986C113.947 16.2986 114.668 17.1401 114.668 18.6128ZM117.195 21.7384V15.4871H118.181V16.4849H118.205C118.554 15.8117 119.221 15.3789 120.189 15.3789C121.559 15.3789 122.353 16.2625 122.353 17.6811V21.7384H121.307V17.8674C121.307 16.8576 120.832 16.3046 119.87 16.3046C118.884 16.3046 118.241 17.0018 118.241 18.0597V21.7384H117.195ZM128.408 13.9783H127.362V15.4871H126.431V16.3466H127.362V20.1155C127.362 21.3176 127.807 21.7865 128.955 21.7865C129.202 21.7865 129.49 21.7685 129.616 21.7384V20.8608C129.544 20.8728 129.304 20.8909 129.184 20.8909C128.649 20.8909 128.408 20.6324 128.408 20.0614V16.3466H129.622V15.4871H128.408V13.9783ZM131.199 21.7384V13.0647H132.245V16.4849H132.269C132.618 15.7876 133.303 15.3789 134.253 15.3789C135.623 15.3789 136.453 16.3046 136.453 17.6991V21.7384H135.407V17.8914C135.407 16.8996 134.908 16.3046 133.928 16.3046C132.888 16.3046 132.245 17.0138 132.245 18.0958V21.7384H131.199ZM143.367 19.9472H142.339C142.165 20.5362 141.582 20.939 140.788 20.939C139.664 20.939 138.961 20.1515 138.961 18.9554V18.8953H143.445V18.4985C143.445 16.6051 142.405 15.3789 140.716 15.3789C138.991 15.3789 137.885 16.6953 137.885 18.6368C137.885 20.6024 138.973 21.8466 140.764 21.8466C142.129 21.8466 143.187 21.0411 143.367 19.9472ZM140.698 16.2865C139.718 16.2865 139.033 17.0379 138.967 18.0778H142.363C142.339 17.0319 141.684 16.2865 140.698 16.2865ZM60.5926 38.5263L62.1074 43.0017H64.827L58.8484 26.4428H56.0713L50.0927 43.0017H52.7664L54.2812 38.5263H60.5926ZM57.4027 29.1968L54.9355 36.4607H59.9388L57.4716 29.1968H57.4027ZM78.2852 36.9656C78.2852 33.1444 76.2655 30.7345 73.2016 30.7345C71.4573 30.7345 70.0688 31.6181 69.3573 33.0066H69.3114V30.9296H66.9131V46.9951H69.3918V41.0164H69.4491C70.1377 42.3591 71.5147 43.2082 73.2475 43.2082C76.277 43.2082 78.2852 40.7869 78.2852 36.9656ZM72.5472 41.1083C74.5095 41.1083 75.7373 39.5017 75.7373 36.9657C75.7373 34.4411 74.5095 32.8231 72.5472 32.8231C70.6538 32.8231 69.38 34.4755 69.38 36.9657C69.38 39.4788 70.6423 41.1083 72.5472 41.1083ZM92.1211 36.9656C92.1211 33.1444 90.1014 30.7345 87.0375 30.7345C85.2933 30.7345 83.9047 31.6181 83.1933 33.0066H83.1474V30.9296H80.749V46.9951H83.2277V41.0164H83.2851C83.9736 42.3591 85.3506 43.2082 87.0834 43.2082C90.1129 43.2082 92.1211 40.7869 92.1211 36.9656ZM86.384 41.1083C88.3463 41.1083 89.5741 39.5017 89.5741 36.9657C89.5741 34.4411 88.3463 32.8231 86.384 32.8231C84.4906 32.8231 83.2168 34.4755 83.2168 36.9657C83.2168 39.4788 84.4791 41.1083 86.384 41.1083ZM102.008 38.3886H99.4717C99.6323 41.3837 102.111 43.2771 105.783 43.2771C109.708 43.2771 112.175 41.3378 112.175 38.2394C112.175 35.8181 110.763 34.4526 107.367 33.6493L105.542 33.2017C103.408 32.6739 102.536 31.9854 102.536 30.8149C102.536 29.346 103.901 28.3362 105.898 28.3362C107.895 28.3362 109.26 29.3345 109.409 30.987H111.911C111.831 28.1296 109.432 26.1674 105.932 26.1674C102.398 26.1674 99.9077 28.1296 99.9077 30.987C99.9077 33.2935 101.319 34.7165 104.36 35.4509L106.506 35.9673C108.652 36.4952 109.558 37.264 109.558 38.5493C109.558 40.0296 108.055 41.1083 105.967 41.1083C103.786 41.1083 102.191 40.0296 102.008 38.3886ZM115.466 28.0723H117.956V30.9296H120.251V32.8919H117.956V39.5476C117.956 40.5919 118.415 41.0624 119.425 41.0624C119.677 41.0624 120.079 41.0394 120.239 41.005V42.9673C119.964 43.0361 119.413 43.082 118.862 43.082C116.418 43.082 115.466 42.1525 115.466 39.823V32.8919H113.71V30.9296H115.466V28.0723ZM122.016 36.9656C122.016 40.8558 124.288 43.2312 127.742 43.2312C131.196 43.2312 133.468 40.8558 133.468 36.9656C133.468 33.087 131.184 30.7116 127.742 30.7116C124.299 30.7116 122.016 33.087 122.016 36.9656ZM127.741 41.1886C129.692 41.1886 130.943 39.6509 130.943 36.9657C130.943 34.2919 129.681 32.7542 127.741 32.7542C125.802 32.7542 124.54 34.2919 124.54 36.9657C124.54 39.6509 125.802 41.1886 127.741 41.1886ZM138.307 30.9296H135.943V43.0017H138.422V35.7722C138.422 34.0624 139.409 32.9952 141.004 32.9952C141.486 32.9952 141.922 33.0525 142.117 33.1329V30.8263C141.933 30.7919 141.624 30.7345 141.268 30.7345C139.845 30.7345 138.766 31.5722 138.365 32.9837H138.307V30.9296ZM152.212 39.4558H154.565C154.221 41.6591 152.132 43.2312 149.367 43.2312C145.821 43.2312 143.675 40.8328 143.675 37.023C143.675 33.2362 145.855 30.7116 149.263 30.7116C152.614 30.7116 154.703 33.0755 154.703 36.7361V37.5853H146.176V37.7345C146.176 39.8345 147.439 41.223 149.424 41.223C150.835 41.223 151.88 40.5115 152.212 39.4558ZM146.188 35.8525C146.315 34.028 147.531 32.7083 149.264 32.7083C150.997 32.7083 152.167 34.005 152.224 35.8525H146.188Z" fill="#FEFEFE"/>
</g>
</svg>
