<svg width="321" height="151" viewBox="0 0 321 151" fill="none" xmlns="http://www.w3.org/2000/svg">
<rect x="9.48291" y="79.9463" width="303" height="69" rx="10" transform="rotate(-13.9709 9.48291 79.9463)" fill="#6B0CFF"/>
<g filter="url(#filter0_d_20_7996)">
<g clip-path="url(#clip0_20_7996)">
<rect x="1" y="74.8433" width="303" height="69" rx="10" transform="rotate(-13.9709 1 74.8433)" fill="white"/>
<path d="M28.6286 93.4306C28.7213 93.8032 28.717 94.1835 28.6157 94.5714C28.5124 94.9516 28.3063 95.2997 27.9975 95.6156C27.6964 95.9296 27.2974 96.1648 26.8005 96.3214L27.0352 97.2647L26.4063 97.4211L26.1717 96.4779C25.4497 96.5915 24.8192 96.5093 24.2802 96.2313C23.7391 95.9454 23.3894 95.5007 23.231 94.8971L24.3606 94.6161C24.4728 94.9344 24.6636 95.1878 24.9331 95.3763C25.2103 95.5629 25.5508 95.639 25.9544 95.6045L25.2301 92.6933C24.6771 92.6907 24.2241 92.6591 23.871 92.5986C23.518 92.538 23.1922 92.3882 22.8936 92.1493C22.5951 91.9103 22.384 91.5423 22.2604 91.0455C22.104 90.4166 22.1919 89.8424 22.5243 89.3228C22.8645 88.8013 23.3936 88.4264 24.1118 88.1983L23.8713 87.2317L24.5001 87.0753L24.7406 88.0418C25.414 87.932 25.9989 88.0132 26.4953 88.2854C26.9898 88.5498 27.3415 88.9693 27.5504 89.5439L26.4208 89.8249C26.3144 89.5629 26.1332 89.3483 25.8773 89.1811C25.6194 89.0062 25.3149 88.9253 24.9637 88.9385L25.6706 91.7799C26.2158 91.7844 26.665 91.8169 27.018 91.8775C27.3769 91.9283 27.7017 92.0742 27.9925 92.3151C28.291 92.5541 28.5031 92.9259 28.6286 93.4306ZM23.3289 90.7178C23.4236 91.0982 23.6086 91.3613 23.8839 91.5072C24.1593 91.653 24.5307 91.7378 24.9983 91.7617L24.3291 89.0717C23.935 89.2109 23.6457 89.423 23.461 89.7081C23.2745 89.9853 23.2304 90.3219 23.3289 90.7178ZM26.5861 95.4597C26.9937 95.3088 27.2821 95.0763 27.4513 94.7622C27.6282 94.4461 27.6723 94.1095 27.5834 93.7524C27.4888 93.372 27.2999 93.1099 27.0168 92.966C26.7317 92.8143 26.3603 92.7295 25.9024 92.7115L26.5861 95.4597ZM30.2884 93.3886L30.0885 92.5851L32.7679 85.9087L34.0372 85.5929L35.4163 91.1359L36.5808 90.8462L36.8096 91.7662L35.6451 92.0559L36.1116 93.9307L35.0635 94.1915L34.5971 92.3166L30.2884 93.3886ZM33.311 86.9483L31.2823 92.1644L34.4148 91.3851L33.311 86.9483ZM37.2656 89.0806C36.9334 87.7454 36.892 86.651 37.1413 85.7975C37.3887 84.9363 38.0559 84.3705 39.1427 84.1001C40.2218 83.8317 41.0724 84.0199 41.6945 84.6648C42.3147 85.3019 42.7909 86.2881 43.1231 87.6234C43.4611 88.982 43.5064 90.0919 43.259 90.9531C43.0116 91.8143 42.3483 92.3791 41.2692 92.6476C40.1824 92.918 39.3279 92.7307 38.7058 92.0859C38.0837 91.441 37.6036 90.4392 37.2656 89.0806ZM42.075 87.8841C41.907 87.2087 41.7185 86.6497 41.5094 86.2071C41.3062 85.7547 41.0291 85.4197 40.6782 85.202C40.335 84.9824 39.9033 84.9373 39.3832 85.0667C38.8553 85.198 38.4873 85.4421 38.2793 85.7988C38.079 86.1537 37.9913 86.5795 38.0159 87.0762C38.0464 87.5633 38.1457 88.1445 38.3137 88.8199C38.4875 89.5186 38.676 90.0941 38.8793 90.5464C39.0902 90.9968 39.3673 91.3318 39.7105 91.5515C40.0614 91.7692 40.5009 91.8124 41.0288 91.681C41.5489 91.5516 41.9091 91.3095 42.1094 90.9547C42.3174 90.5979 42.4052 90.1721 42.3728 89.6773C42.3481 89.1805 42.2489 88.5828 42.075 87.8841ZM52.178 84.9254L52.401 85.8221L47.7547 86.9781L47.5316 86.0814L52.178 84.9254ZM63.1315 84.8466C63.2243 85.2192 63.2199 85.5995 63.1186 85.9875C63.0153 86.3676 62.8093 86.7157 62.5004 87.0316C62.1993 87.3456 61.8003 87.5809 61.3034 87.7375L61.5381 88.6807L60.9092 88.8372L60.6746 87.8939C59.9527 88.0076 59.3222 87.9254 58.7831 87.6473C58.2421 87.3615 57.8924 86.9167 57.7339 86.3131L58.8635 86.0321C58.9757 86.3504 59.1665 86.6039 59.436 86.7924C59.7132 86.979 60.0537 87.055 60.4573 87.0205L59.733 84.1093C59.18 84.1067 58.727 84.0752 58.3739 84.0146C58.0209 83.9541 57.6951 83.8043 57.3965 83.5653C57.098 83.3263 56.8869 82.9584 56.7633 82.4615C56.6069 81.8327 56.6949 81.2585 57.0272 80.7388C57.3674 80.2173 57.8965 79.8425 58.6147 79.6143L58.3742 78.6478L59.0031 78.4913L59.2435 79.4579C59.9169 79.348 60.5018 79.4292 60.9982 79.7014C61.4927 79.9659 61.8444 80.3854 62.0533 80.9599L60.9237 81.241C60.8173 80.9789 60.6361 80.7643 60.3802 80.5971C60.1224 80.4222 59.8178 80.3414 59.4666 80.3545L60.1735 83.1959C60.7187 83.2004 61.1679 83.2329 61.5209 83.2935C61.8798 83.3444 62.2047 83.4902 62.4954 83.7312C62.794 83.9702 63.006 84.342 63.1315 84.8466ZM57.8318 82.1339C57.9265 82.5143 58.1115 82.7774 58.3868 82.9232C58.6622 83.069 59.0336 83.1539 59.5012 83.1777L58.832 80.4877C58.4379 80.6269 58.1486 80.8391 57.964 81.1241C57.7774 81.4013 57.7333 81.7379 57.8318 82.1339ZM61.089 86.8757C61.4967 86.7249 61.785 86.4924 61.9542 86.1782C62.1311 85.8622 62.1752 85.5256 62.0863 85.1685C61.9917 84.7881 61.8028 84.5259 61.5197 84.382C61.2346 84.2303 60.8632 84.1455 60.4053 84.1275L61.089 86.8757ZM63.3803 79.2325L63.1399 78.2659L65.3291 77.7213L67.4238 86.1406L66.3524 86.4071L64.4982 78.9543L63.3803 79.2325ZM68.175 81.3907C67.8428 80.0554 67.8013 78.9611 68.0507 78.1076C68.2981 77.2464 68.9652 76.6806 70.0521 76.4102C71.1312 76.1417 71.9818 76.3299 72.6039 76.9748C73.224 77.612 73.7002 78.5982 74.0324 79.9335C74.3704 81.292 74.4157 82.4019 74.1683 83.2631C73.9209 84.1243 73.2577 84.6892 72.1786 84.9577C71.0917 85.2281 70.2372 85.0408 69.6151 84.3959C68.993 83.751 68.513 82.7493 68.175 81.3907ZM72.9844 80.1942C72.8163 79.5188 72.6278 78.9598 72.4188 78.5171C72.2155 78.0648 71.9385 77.7298 71.5875 77.5121C71.2443 77.2925 70.8127 77.2473 70.2925 77.3767C69.7646 77.5081 69.3967 77.7521 69.1886 78.1089C68.9884 78.4638 68.9006 78.8896 68.9252 79.3863C68.9557 79.8733 69.055 80.4546 69.223 81.13C69.3969 81.8287 69.5854 82.4042 69.7886 82.8565C69.9996 83.3069 70.2767 83.6419 70.6198 83.8616C70.9708 84.0793 71.4102 84.1225 71.9381 83.9911C72.4583 83.8617 72.8185 83.6196 73.0187 83.2647C73.2267 82.908 73.3145 82.4822 73.2821 81.9874C73.2574 81.4906 73.1582 80.8929 72.9844 80.1942ZM75.4872 79.5715C75.155 78.2362 75.1136 77.1419 75.3629 76.2884C75.6103 75.4272 76.2774 74.8614 77.3643 74.591C78.4434 74.3225 79.294 74.5107 79.9161 75.1556C80.5363 75.7927 81.0125 76.7789 81.3447 78.1142C81.6827 79.4728 81.728 80.5827 81.4806 81.4439C81.2332 82.3051 80.5699 82.87 79.4908 83.1384C78.404 83.4088 77.5495 83.2216 76.9274 82.5767C76.3053 81.9318 75.8252 80.9301 75.4872 79.5715ZM80.2966 78.375C80.1286 77.6996 79.9401 77.1406 79.731 76.6979C79.5278 76.2456 79.2507 75.9106 78.8998 75.6929C78.5566 75.4732 78.1249 75.4281 77.6048 75.5575C77.0769 75.6889 76.7089 75.9329 76.5009 76.2897C76.3006 76.6446 76.2128 77.0703 76.2375 77.5671C76.268 78.0541 76.3673 78.6354 76.5353 79.3108C76.7091 80.0095 76.8976 80.585 77.1009 81.0373C77.3118 81.4877 77.5889 81.8227 77.9321 82.0423C78.283 82.2601 78.7225 82.3032 79.2504 82.1719C79.7705 82.0425 80.1307 81.8004 80.331 81.4455C80.539 81.0888 80.6268 80.663 80.5944 80.1682C80.5697 79.6714 80.4705 79.0737 80.2966 78.375Z" fill="#101828"/>
<path d="M27.1864 111.938L26.9459 110.972L29.1352 110.427L31.2298 118.846L30.1585 119.113L28.3043 111.66L27.1864 111.938ZM31.981 114.097C31.6488 112.761 31.6074 111.667 31.8567 110.813C32.1041 109.952 32.7713 109.386 33.8581 109.116C34.9372 108.848 35.7878 109.036 36.4099 109.681C37.0301 110.318 37.5063 111.304 37.8385 112.639C38.1765 113.998 38.2218 115.108 37.9744 115.969C37.727 116.83 37.0637 117.395 35.9846 117.663C34.8978 117.934 34.0433 117.747 33.4212 117.102C32.7991 116.457 32.319 115.455 31.981 114.097ZM36.7904 112.9C36.6224 112.225 36.4339 111.666 36.2248 111.223C36.0216 110.771 35.7445 110.436 35.3936 110.218C35.0504 109.998 34.6187 109.953 34.0986 110.083C33.5707 110.214 33.2027 110.458 32.9947 110.815C32.7945 111.17 32.7067 111.595 32.7313 112.092C32.7618 112.579 32.8611 113.16 33.0291 113.836C33.2029 114.535 33.3914 115.11 33.5947 115.562C33.8056 116.013 34.0827 116.348 34.4259 116.567C34.7768 116.785 35.2163 116.828 35.7442 116.697C36.2643 116.568 36.6245 116.325 36.8248 115.971C37.0328 115.614 37.1206 115.188 37.0882 114.693C37.0635 114.196 36.9643 113.599 36.7904 112.9ZM39.2933 112.277C38.9611 110.942 38.9197 109.848 39.169 108.994C39.4164 108.133 40.0835 107.567 41.1704 107.297C42.2495 107.028 43.1001 107.217 43.7222 107.861C44.3423 108.499 44.8185 109.485 45.1507 110.82C45.4887 112.179 45.534 113.289 45.2866 114.15C45.0393 115.011 44.376 115.576 43.2969 115.844C42.21 116.115 41.3555 115.927 40.7334 115.283C40.1114 114.638 39.6313 113.636 39.2933 112.277ZM44.1027 111.081C43.9347 110.405 43.7461 109.846 43.5371 109.404C43.3339 108.951 43.0568 108.616 42.7058 108.399C42.3627 108.179 41.931 108.134 41.4108 108.263C40.8829 108.395 40.515 108.639 40.307 108.996C40.1067 109.35 40.0189 109.776 40.0436 110.273C40.0741 110.76 40.1733 111.341 40.3414 112.017C40.5152 112.715 40.7037 113.291 40.9069 113.743C41.1179 114.194 41.395 114.529 41.7382 114.748C42.0891 114.966 42.5285 115.009 43.0564 114.878C43.5766 114.748 43.9368 114.506 44.137 114.151C44.345 113.795 44.4328 113.369 44.4004 112.874C44.3758 112.377 44.2765 111.78 44.1027 111.081ZM53.2391 113.482C52.75 113.604 52.2911 113.631 51.8623 113.565C51.4317 113.491 51.0671 113.334 50.7686 113.095C50.4681 112.848 50.2579 112.534 50.1381 112.151L51.2327 111.879C51.3429 112.19 51.5551 112.413 51.8693 112.549C52.1913 112.683 52.5696 112.696 53.0043 112.588C53.408 112.488 53.7041 112.319 53.8926 112.083C54.0811 111.846 54.1415 111.592 54.0739 111.321C54.0044 111.041 53.829 110.866 53.5477 110.796C53.2645 110.718 52.8464 110.678 52.2935 110.675C51.789 110.669 51.3699 110.641 51.0363 110.592C50.7084 110.534 50.4049 110.407 50.1257 110.213C49.8524 110.009 49.6645 109.701 49.5622 109.29C49.481 108.964 49.5037 108.641 49.6302 108.321C49.7567 108.001 49.9792 107.719 50.2976 107.474C50.6142 107.223 51.0015 107.04 51.4595 106.926C52.166 106.75 52.781 106.787 53.3046 107.036C53.8282 107.284 54.1828 107.716 54.3684 108.329L53.3087 108.593C53.2023 108.265 52.9998 108.031 52.7012 107.891C52.4103 107.749 52.0591 107.729 51.6477 107.831C51.2673 107.926 50.9848 108.083 50.8002 108.302C50.6156 108.521 50.5562 108.762 50.6218 109.026C50.674 109.236 50.7834 109.394 50.9502 109.501C51.1228 109.598 51.3206 109.664 51.5437 109.699C51.7726 109.725 52.0821 109.743 52.4721 109.753C52.961 109.763 53.3645 109.795 53.6827 109.847C53.9989 109.892 54.2879 110.01 54.5496 110.201C54.8191 110.389 55.006 110.676 55.1103 111.063C55.1972 111.412 55.1784 111.751 55.0539 112.078C54.9293 112.406 54.7088 112.696 54.3922 112.948C54.0815 113.19 53.6971 113.368 53.2391 113.482ZM56.8026 106.957C56.9214 106.54 57.1566 106.16 57.5082 105.817C57.8656 105.464 58.3199 105.219 58.8711 105.082C59.4379 104.941 59.984 104.949 60.5097 105.107C61.0431 105.263 61.5036 105.556 61.8911 105.987C62.2768 106.411 62.5507 106.949 62.7129 107.601C62.8733 108.245 62.8842 108.852 62.7458 109.423C62.6074 109.993 62.34 110.476 61.9438 110.871C61.5553 111.265 61.0777 111.532 60.5109 111.673C59.9675 111.808 59.4562 111.808 58.9771 111.671C58.5039 111.525 58.1132 111.297 57.805 110.986L58.8509 115.19L57.7912 115.453L55.4503 106.044L56.51 105.781L56.8026 106.957ZM61.63 107.87C61.5102 107.389 61.3089 106.994 61.0259 106.685C60.743 106.376 60.4115 106.17 60.0313 106.067C59.6589 105.962 59.2747 105.958 58.8788 106.057C58.4906 106.153 58.1537 106.34 57.8682 106.617C57.5885 106.885 57.3931 107.226 57.282 107.641C57.1768 108.047 57.1831 108.486 57.3009 108.96C57.4207 109.441 57.623 109.84 57.9078 110.156C58.1985 110.463 58.531 110.673 58.9054 110.786C59.2856 110.89 59.6697 110.893 60.0579 110.796C60.4538 110.698 60.7916 110.515 61.0714 110.247C61.3569 109.97 61.5523 109.629 61.6575 109.224C61.7608 108.81 61.7516 108.359 61.63 107.87ZM67.7166 109.88C67.1189 110.029 66.5416 110.028 65.9849 109.878C65.436 109.726 64.96 109.437 64.5569 109.009C64.1597 108.572 63.8789 108.024 63.7148 107.364C63.5525 106.712 63.5493 106.103 63.7052 105.536C63.8669 104.96 64.1595 104.479 64.5829 104.094C65.0044 103.7 65.5179 103.428 66.1234 103.278C66.729 103.127 67.3101 103.127 67.8668 103.277C68.4215 103.419 68.9005 103.704 69.3036 104.131C69.7144 104.556 70.0019 105.099 70.1661 105.759C70.3303 106.419 70.3276 107.038 70.1582 107.616C69.9945 108.184 69.6981 108.666 69.2688 109.061C68.8396 109.457 68.3222 109.73 67.7166 109.88ZM67.4849 108.949C67.8653 108.854 68.2002 108.676 68.4896 108.414C68.779 108.153 68.9802 107.818 69.0932 107.411C69.2139 107.002 69.2106 106.541 69.0831 106.028C68.9556 105.516 68.7466 105.106 68.4559 104.799C68.1652 104.493 67.8355 104.294 67.467 104.205C67.0965 104.107 66.7211 104.106 66.3407 104.2C65.9525 104.297 65.6176 104.475 65.336 104.735C65.0602 104.985 64.8696 105.312 64.7644 105.718C64.6592 106.123 64.6703 106.582 64.7978 107.094C64.9272 107.615 65.1294 108.03 65.4046 108.341C65.6875 108.65 66.0104 108.854 66.3731 108.953C66.7339 109.045 67.1045 109.043 67.4849 108.949ZM72.2784 102.785L73.2142 106.546C73.2914 106.857 73.4124 107.062 73.5773 107.161C73.7401 107.252 73.9846 107.257 74.3107 107.176L75.0909 106.982L75.314 107.879L74.3591 108.116C73.7691 108.263 73.2927 108.237 72.9301 108.039C72.5675 107.841 72.309 107.431 72.1545 106.81L71.2187 103.049L70.3919 103.254L70.1746 102.381L71.0014 102.175L70.6016 100.568L71.6613 100.305L72.0611 101.912L73.7263 101.497L73.9436 102.371L72.2784 102.785ZM78.8831 107.102C78.394 107.224 77.9351 107.251 77.5064 107.185C77.0757 107.111 76.7111 106.954 76.4126 106.715C76.1122 106.468 75.902 106.154 75.7821 105.771L76.8768 105.499C76.987 105.81 77.1992 106.033 77.5134 106.169C77.8353 106.303 78.2137 106.316 78.6484 106.208C79.0521 106.108 79.3482 105.939 79.5367 105.703C79.7251 105.466 79.7856 105.212 79.718 104.941C79.6484 104.661 79.473 104.486 79.1918 104.416C78.9086 104.338 78.4905 104.298 77.9375 104.295C77.4331 104.289 77.014 104.261 76.6803 104.212C76.3525 104.154 76.049 104.027 75.7698 103.833C75.4964 103.629 75.3086 103.321 75.2062 102.91C75.1251 102.584 75.1478 102.261 75.2743 101.941C75.4007 101.621 75.6232 101.339 75.9417 101.095C76.2583 100.843 76.6456 100.66 77.1036 100.546C77.8101 100.37 78.4251 100.407 78.9487 100.656C79.4723 100.905 79.8269 101.336 80.0124 101.949L78.9527 102.213C78.8464 101.885 78.6439 101.651 78.3453 101.511C78.0544 101.369 77.7032 101.349 77.2917 101.451C76.9113 101.546 76.6288 101.703 76.4443 101.922C76.2597 102.141 76.2002 102.382 76.2659 102.646C76.3181 102.856 76.4275 103.014 76.5942 103.121C76.7668 103.218 76.9647 103.284 77.1877 103.319C77.4167 103.345 77.7261 103.363 78.1161 103.373C78.6051 103.383 79.0086 103.415 79.3267 103.467C79.643 103.512 79.9319 103.63 80.1937 103.821C80.4631 104.009 80.65 104.296 80.7544 104.683C80.8413 105.032 80.8225 105.371 80.6979 105.698C80.5734 106.026 80.3528 106.316 80.0363 106.568C79.7255 106.81 79.3412 106.988 78.8831 107.102Z" fill="#667085"/>
<g filter="url(#filter1_d_20_7996)">
<rect x="138.785" y="52.9297" width="147" height="44" rx="20" transform="rotate(-13.9709 138.785 52.9297)" fill="#FF5722"/>
<rect x="139.391" y="53.2942" width="146" height="43" rx="19.5" transform="rotate(-13.9709 139.391 53.2942)" stroke="#FF5722"/>
<path d="M190.123 69.2039C186.992 69.9829 184.478 68.2898 183.603 64.7721L183.601 64.7645C182.743 61.3149 184.18 58.679 187.288 57.9057C189.851 57.2681 191.826 58.3467 192.771 60.2046L192.836 60.3336L191.092 60.7674L191.048 60.6896C190.271 59.5386 189.095 59.0503 187.67 59.4049C185.577 59.9255 184.69 61.7643 185.328 64.3268L185.329 64.3344C185.98 66.95 187.68 68.2177 189.765 67.699C191.539 67.2576 192.488 65.83 192.098 64.164L192.053 63.9821L189.179 64.6969L188.834 63.3095L193.383 62.1778L193.662 63.2999C194.4 66.2642 193.088 68.4664 190.123 69.2039ZM199.701 66.797C197.358 67.3798 195.542 66.1329 194.916 63.6159L194.914 63.6083C194.294 61.114 195.319 59.0877 197.556 58.5313C199.792 57.9749 201.564 59.2407 202.16 61.6365L202.298 62.1899L196.65 63.5951C197.056 65.0962 198.101 65.7701 199.405 65.4457C200.375 65.2042 200.895 64.5435 200.951 63.8937L200.958 63.8274L202.513 63.4407L202.518 63.5279C202.575 64.8581 201.634 66.316 199.701 66.797ZM197.897 59.8713C196.836 60.1354 196.196 61.0593 196.384 62.4295L200.387 61.4336C199.907 60.0877 198.966 59.6054 197.897 59.8713ZM207.297 64.9071C205.72 65.2994 204.796 64.8208 204.4 63.2288L203.263 58.6572L202.118 58.942L201.794 57.638L202.938 57.3532L202.422 55.2759L204.097 54.859L204.614 56.9363L206.107 56.5648L206.432 57.8688L204.938 58.2403L206.051 62.7133C206.253 63.5246 206.677 63.6766 207.367 63.505C207.541 63.4616 207.682 63.4106 207.799 63.3653L208.114 64.6314C207.932 64.7088 207.631 64.8241 207.297 64.9071ZM215.44 62.8813C213.863 63.2736 212.939 62.7951 212.543 61.203L211.405 56.6314L210.26 56.9162L209.936 55.6122L211.081 55.3274L210.564 53.2501L212.239 52.8333L212.756 54.9106L214.25 54.539L214.574 55.843L213.081 56.2146L214.194 60.6876C214.395 61.4988 214.82 61.6509 215.509 61.4792C215.684 61.4359 215.824 61.3849 215.942 61.3395L216.257 62.6056C216.075 62.6831 215.773 62.7983 215.44 62.8813ZM216.188 52.7525C215.658 52.8845 215.127 52.5656 214.999 52.0501C214.869 51.527 215.188 50.9968 215.719 50.8647C216.257 50.7308 216.78 51.0516 216.91 51.5748C217.038 52.0903 216.727 52.6186 216.188 52.7525ZM217.659 62.16L215.675 54.1844L217.313 53.777L219.297 61.7526L217.659 62.16ZM224.454 60.6387C222.126 61.2177 220.273 59.9802 219.637 57.4253L219.635 57.4177C219.007 54.8931 220.095 52.9237 222.37 52.3579C224.424 51.8467 225.996 52.8565 226.506 54.3237L226.526 54.3749L224.965 54.7634L224.934 54.7066C224.566 53.9691 223.795 53.4604 222.726 53.7263C221.453 54.0432 220.89 55.3102 221.315 57.016L221.316 57.0236C221.75 58.7673 222.846 59.5814 224.113 59.2664C225.121 59.0156 225.62 58.2715 225.602 57.3582L225.595 57.2956L227.172 56.9033L227.177 56.9583C227.401 58.6013 226.372 60.1615 224.454 60.6387ZM229.1 59.3138L226.378 48.3738L228.015 47.9664L229.6 54.3348L229.638 54.3254L231.99 50.1254L233.916 49.6463L231.497 53.9031L236.029 57.5898L234.126 58.0633L230.537 55.1885L230.022 56.033L230.737 58.9064L229.1 59.3138ZM239.912 56.7928C237.57 57.3756 235.754 56.1286 235.128 53.6116L235.126 53.604C234.505 51.1097 235.531 49.0835 237.767 48.527C240.004 47.9706 241.776 49.2365 242.372 51.6322L242.51 52.1856L236.862 53.5908C237.267 55.092 238.312 55.7658 239.616 55.4414C240.587 55.2 241.107 54.5393 241.163 53.8894L241.17 53.8231L242.724 53.4365L242.73 53.5236C242.787 54.8539 241.846 56.3118 239.912 56.7928ZM238.109 49.8671C237.047 50.1311 236.408 51.0551 236.596 52.4252L240.599 51.4293C240.119 50.0835 239.178 49.6011 238.109 49.8671ZM247.509 54.9028C245.932 55.2951 245.008 54.8166 244.612 53.2245L243.474 48.6529L242.33 48.9377L242.005 47.6337L243.15 47.3489L242.633 45.2716L244.309 44.8548L244.826 46.9321L246.319 46.5605L246.643 47.8645L245.15 48.2361L246.263 52.7091C246.465 53.5203 246.889 53.6724 247.579 53.5007C247.753 53.4574 247.893 53.4064 248.011 53.361L248.326 54.6271C248.144 54.7046 247.843 54.8198 247.509 54.9028Z" fill="white"/>
</g>
</g>
<rect x="1.30296" y="75.0255" width="302.5" height="68.5" rx="9.75" transform="rotate(-13.9709 1.30296 75.0255)" stroke="#C4C4C4" stroke-width="0.5"/>
</g>
<defs>
<filter id="filter0_d_20_7996" x="-2" y="-1.31006" width="324.695" height="154.112" filterUnits="userSpaceOnUse" color-interpolation-filters="sRGB">
<feFlood flood-opacity="0" result="BackgroundImageFix"/>
<feColorMatrix in="SourceAlpha" type="matrix" values="0 0 0 0 0 0 0 0 0 0 0 0 0 0 0 0 0 0 127 0" result="hardAlpha"/>
<feMorphology radius="3" operator="dilate" in="SourceAlpha" result="effect1_dropShadow_20_7996"/>
<feOffset dx="4" dy="4"/>
<feGaussianBlur stdDeviation="2"/>
<feComposite in2="hardAlpha" operator="out"/>
<feColorMatrix type="matrix" values="0 0 0 0 0 0 0 0 0 0 0 0 0 0 0 0 0 0 0.25 0"/>
<feBlend mode="normal" in2="BackgroundImageFix" result="effect1_dropShadow_20_7996"/>
<feBlend mode="normal" in="SourceGraphic" in2="effect1_dropShadow_20_7996" result="shape"/>
</filter>
<filter id="filter1_d_20_7996" x="136.785" y="16.4395" width="157.274" height="82.1885" filterUnits="userSpaceOnUse" color-interpolation-filters="sRGB">
<feFlood flood-opacity="0" result="BackgroundImageFix"/>
<feColorMatrix in="SourceAlpha" type="matrix" values="0 0 0 0 0 0 0 0 0 0 0 0 0 0 0 0 0 0 127 0" result="hardAlpha"/>
<feOffset dy="1"/>
<feGaussianBlur stdDeviation="1"/>
<feColorMatrix type="matrix" values="0 0 0 0 0.0627451 0 0 0 0 0.0941176 0 0 0 0 0.156863 0 0 0 0.05 0"/>
<feBlend mode="normal" in2="BackgroundImageFix" result="effect1_dropShadow_20_7996"/>
<feBlend mode="normal" in="SourceGraphic" in2="effect1_dropShadow_20_7996" result="shape"/>
</filter>
<clipPath id="clip0_20_7996">
<rect x="1" y="74.8433" width="303" height="69" rx="10" transform="rotate(-13.9709 1 74.8433)" fill="white"/>
</clipPath>
</defs>
</svg>
