<svg width="60" height="60" viewBox="0 0 60 60" fill="none" xmlns="http://www.w3.org/2000/svg">
<path d="M0.479124 54.6516L27.4284 11.089L22.7138 3.79626C22.0828 2.82012 22.3621 1.5186 23.3382 0.887604C24.3143 0.256605 25.6184 0.534561 26.2507 1.51333L29.9971 7.31352L33.7488 1.51202C34.3798 0.535878 35.6839 0.256605 36.6587 0.887604C37.6348 1.5186 37.9141 2.82144 37.2857 3.79758L32.5724 11.0903L59.5204 54.6529C60.1276 55.6212 60.1606 56.8344 59.606 57.8343C59.0527 58.8354 57.9989 59.448 56.8568 59.448H44.9287C43.8524 59.448 42.8487 58.8987 42.2664 57.9937L32.1324 42.1765C31.6661 41.4494 30.8626 41.0107 29.9997 41.0107C29.1382 41.0107 28.3334 41.4494 27.867 42.1779L17.7383 57.9937C17.1587 58.9013 16.155 59.4506 15.0761 59.4506H3.14402C2.0006 59.4506 0.946764 58.8381 0.3935 57.8356C-0.159765 56.8331 -0.12815 55.6198 0.479124 54.6516Z" fill="#FF5722"/>
</svg>
