<svg width="164" height="162" viewBox="0 0 164 162" fill="none" xmlns="http://www.w3.org/2000/svg">
<path d="M1.31009 148.38L74.9711 29.3094L62.0846 9.37605C60.3599 6.70795 61.1232 3.15048 63.7913 1.42576C66.4593 -0.298968 70.0239 0.460775 71.7522 3.13608L81.9923 18.9899L92.2468 3.13248C93.9715 0.464375 97.5361 -0.298968 100.201 1.42576C102.869 3.15048 103.632 6.71155 101.914 9.37965L89.0314 29.313L162.689 148.384C164.349 151.03 164.439 154.346 162.923 157.079C161.411 159.816 158.53 161.49 155.408 161.49H122.805C119.863 161.49 117.12 159.989 115.528 157.515L87.8288 114.282C86.5542 112.294 84.3579 111.095 81.9995 111.095C79.6447 111.095 77.4447 112.294 76.1701 114.285L48.4851 157.515C46.9009 159.996 44.1572 161.497 41.2083 161.497H8.5941C5.46878 161.497 2.5883 159.823 1.07605 157.083C-0.4362 154.343 -0.349786 151.027 1.31009 148.38Z" fill="white"/>
</svg>
