<svg width="57" height="56" viewBox="0 0 57 56" fill="none" xmlns="http://www.w3.org/2000/svg">
<path d="M42.5001 13.9993C41.0767 13.9993 39.7701 13.1827 39.1167 11.9227L37.4367 8.53935C36.3634 6.41602 33.5634 4.66602 31.1834 4.66602H25.8401C23.4367 4.66602 20.6367 6.41602 19.5634 8.53935L17.8834 11.9227C17.2301 13.1827 15.9234 13.9993 14.5001 13.9993C9.43673 13.9993 5.4234 18.2693 5.75007 23.3093L6.9634 42.5827C7.2434 47.3894 9.8334 51.3327 16.2734 51.3327H40.7267C47.1667 51.3327 49.7334 47.3894 50.0367 42.5827L51.2501 23.3093C51.5767 18.2693 47.5634 13.9993 42.5001 13.9993ZM25.0001 16.916H32.0001C32.9567 16.916 33.7501 17.7093 33.7501 18.666C33.7501 19.6227 32.9567 20.416 32.0001 20.416H25.0001C24.0434 20.416 23.2501 19.6227 23.2501 18.666C23.2501 17.7093 24.0434 16.916 25.0001 16.916ZM28.5001 42.2794C24.1601 42.2794 20.6134 38.756 20.6134 34.3927C20.6134 30.0294 24.1367 26.506 28.5001 26.506C32.8634 26.506 36.3867 30.0294 36.3867 34.3927C36.3867 38.756 32.8401 42.2794 28.5001 42.2794Z" fill="#288060"/>
</svg>
