<svg width="57" height="56" viewBox="0 0 57 56" fill="none" xmlns="http://www.w3.org/2000/svg">
<path d="M37.3201 4.66602H19.6801C10.8601 4.66602 8.66675 7.02268 8.66675 16.426V42.6993C8.66675 48.906 12.0734 50.376 16.2034 45.9427L16.2267 45.9193C18.1401 43.8893 21.0568 44.0527 22.7134 46.2693L25.0701 49.4193C26.9601 51.916 30.0168 51.916 31.9067 49.4193L34.2634 46.2693C35.9434 44.0293 38.8601 43.866 40.7734 45.9193C44.9268 50.3527 48.3101 48.8827 48.3101 42.676V16.426C48.3334 7.02268 46.1401 4.66602 37.3201 4.66602ZM35.5001 27.416H21.5001C20.5434 27.416 19.7501 26.6227 19.7501 25.666C19.7501 24.7093 20.5434 23.916 21.5001 23.916H35.5001C36.4568 23.916 37.2501 24.7093 37.2501 25.666C37.2501 26.6227 36.4568 27.416 35.5001 27.416ZM37.8334 18.0827H19.1667C18.2101 18.0827 17.4167 17.2893 17.4167 16.3327C17.4167 15.376 18.2101 14.5827 19.1667 14.5827H37.8334C38.7901 14.5827 39.5834 15.376 39.5834 16.3327C39.5834 17.2893 38.7901 18.0827 37.8334 18.0827Z" fill="#434E5F"/>
</svg>
