<svg width="57" height="56" viewBox="0 0 57 56" fill="none" xmlns="http://www.w3.org/2000/svg">
<path d="M39.5833 8.30602V4.66602C39.5833 3.70935 38.79 2.91602 37.8333 2.91602C36.8766 2.91602 36.0833 3.70935 36.0833 4.66602V8.16602H20.9166V4.66602C20.9166 3.70935 20.1233 2.91602 19.1666 2.91602C18.21 2.91602 17.4166 3.70935 17.4166 4.66602V8.30602C11.1166 8.88935 8.05997 12.646 7.5933 18.2227C7.54663 18.8993 8.10663 19.4593 8.75997 19.4593H48.24C48.9166 19.4593 49.4766 18.876 49.4066 18.2227C48.94 12.646 45.8833 8.88935 39.5833 8.30602Z" fill="#6B66DA"/>
<path d="M47.1667 22.959H9.83333C8.55 22.959 7.5 24.009 7.5 25.2923V39.6656C7.5 46.6656 11 51.3323 19.1667 51.3323H37.8333C46 51.3323 49.5 46.6656 49.5 39.6656V25.2923C49.5 24.009 48.45 22.959 47.1667 22.959ZM21.99 42.489C21.8733 42.5823 21.7567 42.699 21.64 42.769C21.5 42.8623 21.36 42.9323 21.22 42.979C21.08 43.049 20.94 43.0956 20.8 43.119C20.6367 43.1423 20.4967 43.1656 20.3333 43.1656C20.03 43.1656 19.7267 43.0956 19.4467 42.979C19.1433 42.8623 18.91 42.699 18.6767 42.489C18.2567 42.0456 18 41.439 18 40.8323C18 40.2257 18.2567 39.619 18.6767 39.1757C18.91 38.9657 19.1433 38.8023 19.4467 38.6856C19.8667 38.499 20.3333 38.4523 20.8 38.5457C20.94 38.569 21.08 38.6157 21.22 38.6856C21.36 38.7323 21.5 38.8023 21.64 38.8956C21.7567 38.989 21.8733 39.0823 21.99 39.1757C22.41 39.619 22.6667 40.2257 22.6667 40.8323C22.6667 41.439 22.41 42.0456 21.99 42.489ZM21.99 34.3223C21.5467 34.7423 20.94 34.999 20.3333 34.999C19.7267 34.999 19.12 34.7423 18.6767 34.3223C18.2567 33.879 18 33.2723 18 32.6657C18 32.059 18.2567 31.4523 18.6767 31.009C19.33 30.3557 20.3567 30.1457 21.22 30.519C21.5233 30.6357 21.78 30.799 21.99 31.009C22.41 31.4523 22.6667 32.059 22.6667 32.6657C22.6667 33.2723 22.41 33.879 21.99 34.3223ZM30.1567 42.489C29.7133 42.909 29.1067 43.1656 28.5 43.1656C27.8933 43.1656 27.2867 42.909 26.8433 42.489C26.4233 42.0456 26.1667 41.439 26.1667 40.8323C26.1667 40.2257 26.4233 39.619 26.8433 39.1757C27.7067 38.3123 29.2933 38.3123 30.1567 39.1757C30.5767 39.619 30.8333 40.2257 30.8333 40.8323C30.8333 41.439 30.5767 42.0456 30.1567 42.489ZM30.1567 34.3223C30.04 34.4157 29.9233 34.509 29.8067 34.6023C29.6667 34.6957 29.5267 34.7657 29.3867 34.8123C29.2467 34.8823 29.1067 34.929 28.9667 34.9523C28.8033 34.9756 28.6633 34.999 28.5 34.999C27.8933 34.999 27.2867 34.7423 26.8433 34.3223C26.4233 33.879 26.1667 33.2723 26.1667 32.6657C26.1667 32.059 26.4233 31.4523 26.8433 31.009C27.0533 30.799 27.31 30.6357 27.6133 30.519C28.4767 30.1457 29.5033 30.3557 30.1567 31.009C30.5767 31.4523 30.8333 32.059 30.8333 32.6657C30.8333 33.2723 30.5767 33.879 30.1567 34.3223ZM38.3233 42.489C37.88 42.909 37.2733 43.1656 36.6667 43.1656C36.06 43.1656 35.4533 42.909 35.01 42.489C34.59 42.0456 34.3333 41.439 34.3333 40.8323C34.3333 40.2257 34.59 39.619 35.01 39.1757C35.8733 38.3123 37.46 38.3123 38.3233 39.1757C38.7433 39.619 39 40.2257 39 40.8323C39 41.439 38.7433 42.0456 38.3233 42.489ZM38.3233 34.3223C38.2067 34.4157 38.09 34.509 37.9733 34.6023C37.8333 34.6957 37.6933 34.7657 37.5533 34.8123C37.4133 34.8823 37.2733 34.929 37.1333 34.9523C36.97 34.9756 36.8067 34.999 36.6667 34.999C36.06 34.999 35.4533 34.7423 35.01 34.3223C34.59 33.879 34.3333 33.2723 34.3333 32.6657C34.3333 32.059 34.59 31.4523 35.01 31.009C35.2433 30.799 35.4767 30.6357 35.78 30.519C36.2 30.3323 36.6667 30.2857 37.1333 30.379C37.2733 30.4023 37.4133 30.449 37.5533 30.519C37.6933 30.5657 37.8333 30.6357 37.9733 30.729C38.09 30.8223 38.2067 30.9157 38.3233 31.009C38.7433 31.4523 39 32.059 39 32.6657C39 33.2723 38.7433 33.879 38.3233 34.3223Z" fill="#6B66DA"/>
</svg>
