<svg width="57" height="56" viewBox="0 0 57 56" fill="none" xmlns="http://www.w3.org/2000/svg">
<path d="M39.3499 9.00586H23.6233V16.0525C23.6233 16.9625 22.8766 17.6859 21.9899 17.6859C21.1033 17.6859 20.3566 16.9625 20.3566 16.0525V9.00586H17.6499C8.43328 9.00586 5.39995 11.7592 5.18995 20.3692C5.16662 20.7892 5.35328 21.2325 5.65662 21.5359C5.95995 21.8625 6.35662 22.0259 6.82328 22.0259C10.0899 22.0259 12.7733 24.7325 12.7733 27.9992C12.7733 31.2659 10.0899 33.9725 6.82328 33.9725C6.37995 33.9725 5.95995 34.1359 5.65662 34.4625C5.35328 34.7659 5.16662 35.2092 5.18995 35.6292C5.39995 44.2392 8.43328 46.9925 17.6499 46.9925H20.3566V39.9459C20.3566 39.0359 21.1033 38.3125 21.9899 38.3125C22.8766 38.3125 23.6233 39.0359 23.6233 39.9459V46.9925H39.3499C48.9166 46.9925 51.8333 44.0759 51.8333 34.5092V21.4892C51.8333 11.9225 48.9166 9.00586 39.3499 9.00586ZM43.5966 27.7659L41.4266 29.8659C41.3333 29.9359 41.3099 30.0759 41.3333 30.1925L41.8466 33.1559C41.9399 33.6925 41.7299 34.2525 41.2633 34.5792C40.8199 34.9059 40.2366 34.9525 39.7466 34.6959L37.0633 33.2959C36.9699 33.2492 36.8299 33.2492 36.7366 33.2959L34.0533 34.6959C33.8433 34.8125 33.6099 34.8592 33.3766 34.8592C33.0733 34.8592 32.7933 34.7659 32.5366 34.5792C32.0933 34.2525 31.8599 33.7159 31.9533 33.1559L32.4666 30.1925C32.4899 30.0759 32.4433 29.9592 32.3733 29.8659L30.2033 27.7659C29.8066 27.3925 29.6666 26.8092 29.8299 26.2959C29.9933 25.7592 30.4366 25.3859 30.9966 25.3159L33.9833 24.8725C34.0999 24.8492 34.1933 24.7792 34.2633 24.6859L35.5933 21.9792C35.8499 21.4892 36.3399 21.1859 36.8999 21.1859C37.4599 21.1859 37.9499 21.4892 38.1833 21.9792L39.5133 24.6859C39.5599 24.8025 39.6533 24.8725 39.7699 24.8725L42.7566 25.3159C43.3166 25.3859 43.7599 25.7825 43.9233 26.2959C44.1333 26.8092 43.9933 27.3692 43.5966 27.7659Z" fill="#2C7293"/>
</svg>
