<svg width="276" height="120" viewBox="0 0 276 120" fill="none" xmlns="http://www.w3.org/2000/svg">
<mask id="path-1-outside-1_2861_11480" maskUnits="userSpaceOnUse" x="10.9865" y="25" width="264.1" height="78.9999" fill="black">
<rect fill="white" x="10.9865" y="25" width="264.1" height="78.9999"/>
<path d="M71.4134 46.2H54.0134L54.0842 102H30.0842L30.0134 46.2H12.6134L12.5891 27H71.3891L71.4134 46.2ZM126.048 73.6799H102.048L102.06 82.7999H131.46L131.484 102H78.0842L77.9891 27H130.789L127.813 46.2H102.013L102.026 56.28H126.026L126.048 73.6799ZM185.757 102L167.363 75.3599C166.722 74.4799 166.32 72.5599 166.156 69.5999H165.676L165.717 102H141.717L141.622 27H164.182L182.576 53.64C183.217 54.52 183.619 56.44 183.783 59.4H184.263L184.222 27L208.222 27L208.317 102H185.757ZM273.679 46.2H256.279L256.35 102H232.35L232.279 46.2H214.879L214.855 27H273.655L273.679 46.2Z"/>
</mask>
<path d="M71.4134 46.2H54.0134L54.0842 102H30.0842L30.0134 46.2H12.6134L12.5891 27H71.3891L71.4134 46.2ZM126.048 73.6799H102.048L102.06 82.7999H131.46L131.484 102H78.0842L77.9891 27H130.789L127.813 46.2H102.013L102.026 56.28H126.026L126.048 73.6799ZM185.757 102L167.363 75.3599C166.722 74.4799 166.32 72.5599 166.156 69.5999H165.676L165.717 102H141.717L141.622 27H164.182L182.576 53.64C183.217 54.52 183.619 56.44 183.783 59.4H184.263L184.222 27L208.222 27L208.317 102H185.757ZM273.679 46.2H256.279L256.35 102H232.35L232.279 46.2H214.879L214.855 27H273.655L273.679 46.2Z" fill="#FCB8FF"/>
<path d="M71.4134 46.2L71.415 47.4234H72.6384L72.6368 46.2H71.4134ZM54.0134 46.2L54.0119 44.9766H52.7885L52.79 46.2H54.0134ZM54.0842 102L54.0857 103.223H55.3091L55.3076 102H54.0842ZM30.0842 102H28.8608L28.8623 103.223H30.0857L30.0842 102ZM30.0134 46.2H31.2368L31.2353 44.9766H30.0119L30.0134 46.2ZM12.6134 46.2H11.39L11.3916 47.4234H12.615L12.6134 46.2ZM12.5891 27L12.5875 25.7766H11.3641L11.3657 27H12.5891ZM71.3891 27H72.6125L72.6109 25.7766H71.3875L71.3891 27ZM71.4119 44.9766H54.0119L54.015 47.4234H71.415L71.4119 44.9766ZM52.79 46.2L52.8608 102H55.3076L55.2368 46.2H52.79ZM54.0826 100.777H30.0826L30.0857 103.223H54.0857L54.0826 100.777ZM31.3076 102L31.2368 46.2H28.79L28.8608 102H31.3076ZM30.0119 44.9766H12.6119L12.615 47.4234H30.015L30.0119 44.9766ZM13.8368 46.2L13.8125 27H11.3657L11.39 46.2H13.8368ZM12.5906 28.2234H71.3906L71.3875 25.7766H12.5875L12.5906 28.2234ZM70.1657 27L70.19 46.2H72.6368L72.6125 27H70.1657ZM126.048 73.6799L126.05 74.9033H127.273L127.272 73.6799H126.048ZM102.048 73.6799L102.047 72.4565H100.823L100.825 73.6799H102.048ZM102.06 82.7999H100.836L100.838 84.0233H102.061L102.06 82.7999ZM131.46 82.7999H132.683L132.682 81.5765H131.458L131.46 82.7999ZM131.484 102L131.486 103.223H132.709L132.708 102H131.484ZM78.0842 102H76.8608L76.8623 103.223H78.0857L78.0842 102ZM77.9891 27L77.9875 25.7766H76.7641L76.7657 27H77.9891ZM130.789 27L131.998 27.1888L132.217 25.7766H130.788L130.789 27ZM127.813 46.2L127.815 47.4234H128.862L129.022 46.3888L127.813 46.2ZM102.013 46.2L102.012 44.9766H100.788L100.79 46.2H102.013ZM102.026 56.28H100.803L100.804 57.5034H102.028L102.026 56.28ZM126.026 56.28H127.25L127.248 55.0566H126.025L126.026 56.28ZM126.047 72.4565H102.047L102.05 74.9033H126.05L126.047 72.4565ZM100.825 73.6799L100.836 82.7999H103.283L103.272 73.6799H100.825ZM102.061 84.0233H131.461L131.458 81.5765H102.058L102.061 84.0233ZM130.236 82.7999L130.261 102H132.708L132.683 82.7999H130.236ZM131.483 100.777H78.0826L78.0857 103.223H131.486L131.483 100.777ZM79.3076 102L79.2125 27H76.7657L76.8608 102H79.3076ZM77.9906 28.2234H130.791L130.788 25.7766H77.9875L77.9906 28.2234ZM129.58 26.8111L126.604 46.0111L129.022 46.3888L131.998 27.1888L129.58 26.8111ZM127.812 44.9766H102.012L102.015 47.4234H127.815L127.812 44.9766ZM100.79 46.2L100.803 56.28H103.25L103.237 46.2H100.79ZM102.028 57.5034H126.028L126.025 55.0566H102.025L102.028 57.5034ZM124.803 56.28L124.825 73.6799H127.272L127.25 56.28H124.803ZM185.757 102L184.751 102.694L185.116 103.223H185.759L185.757 102ZM167.363 75.3599L168.37 74.6657L168.361 74.6529L168.352 74.6404L167.363 75.3599ZM166.156 69.5999L167.377 69.5339L167.313 68.3766H166.154L166.156 69.5999ZM165.676 69.5999L165.674 68.3766H164.451L164.453 69.5999H165.676ZM165.717 102L165.719 103.223H166.942L166.94 102H165.717ZM141.717 102H140.494L140.495 103.223H141.719L141.717 102ZM141.622 27L141.62 25.7766H140.397L140.398 27H141.622ZM164.182 27L165.188 26.3057L164.823 25.7766H164.18L164.182 27ZM182.576 53.64L181.569 54.3342L181.578 54.347L181.587 54.3595L182.576 53.64ZM183.783 59.4L182.561 59.466L182.625 60.6234H183.785L183.783 59.4ZM184.263 59.4L184.265 60.6234H185.488L185.486 59.4H184.263ZM184.222 27L184.22 25.7766H182.997L182.999 27H184.222ZM208.222 27H209.445L209.444 25.7766H208.22L208.222 27ZM208.317 102L208.319 103.223H209.542L209.54 102H208.317ZM186.763 101.306L168.37 74.6657L166.357 76.0542L184.751 102.694L186.763 101.306ZM168.352 74.6404C168.185 74.4116 167.968 73.9154 167.778 73.0104C167.594 72.1331 167.457 70.98 167.377 69.5339L164.934 69.666C165.018 71.1799 165.165 72.4668 165.383 73.5095C165.596 74.5245 165.9 75.4283 166.375 76.0795L168.352 74.6404ZM166.154 68.3766H165.674L165.677 70.8233H166.157L166.154 68.3766ZM164.453 69.5999L164.494 102H166.94L166.899 69.5999H164.453ZM165.715 100.777H141.715L141.719 103.223H165.719L165.715 100.777ZM142.94 102L142.845 27H140.398L140.494 102H142.94ZM141.623 28.2234H164.183L164.18 25.7766H141.62L141.623 28.2234ZM163.175 27.6942L181.569 54.3342L183.582 52.9457L165.188 26.3057L163.175 27.6942ZM181.587 54.3595C181.754 54.5883 181.971 55.0845 182.161 55.9895C182.345 56.8668 182.481 58.0199 182.561 59.466L185.005 59.3339C184.921 57.82 184.774 56.5331 184.556 55.4904C184.343 54.4754 184.039 53.5716 183.564 52.9204L181.587 54.3595ZM183.785 60.6234H184.265L184.261 58.1766H183.781L183.785 60.6234ZM185.486 59.4L185.445 27H182.999L183.04 59.4H185.486ZM184.223 28.2234L208.223 28.2234L208.22 25.7766L184.22 25.7766L184.223 28.2234ZM206.999 27L207.094 102H209.54L209.445 27H206.999ZM208.315 100.777H185.755L185.759 103.223H208.319L208.315 100.777ZM273.679 46.2L273.681 47.4234H274.904L274.902 46.2H273.679ZM256.279 46.2L256.278 44.9766H255.054L255.056 46.2H256.279ZM256.35 102L256.351 103.223H257.575L257.573 102H256.35ZM232.35 102H231.126L231.128 103.223H232.351L232.35 102ZM232.279 46.2H233.502L233.501 44.9766H232.278L232.279 46.2ZM214.879 46.2H213.656L213.657 47.4234H214.881L214.879 46.2ZM214.855 27L214.853 25.7766H213.63L213.631 27H214.855ZM273.655 27H274.878L274.877 25.7766H273.653L273.655 27ZM273.678 44.9766H256.278L256.281 47.4234H273.681L273.678 44.9766ZM255.056 46.2L255.126 102H257.573L257.502 46.2H255.056ZM256.348 100.777H232.348L232.351 103.223H256.351L256.348 100.777ZM233.573 102L233.502 46.2H231.056L231.126 102H233.573ZM232.278 44.9766H214.878L214.881 47.4234H232.281L232.278 44.9766ZM216.102 46.2L216.078 27H213.631L213.656 46.2H216.102ZM214.856 28.2234H273.656L273.653 25.7766H214.853L214.856 28.2234ZM272.431 27L272.456 46.2H274.902L274.878 27H272.431Z" fill="black" mask="url(#path-1-outside-1_2861_11480)"/>
<mask id="path-3-outside-2_2861_11480" maskUnits="userSpaceOnUse" x="5.78121" y="25" width="264.1" height="78.9999" fill="black">
<rect fill="white" x="5.78121" y="25" width="264.1" height="78.9999"/>
<path d="M66.2081 46.2H48.8081L48.8789 102H24.8789L24.8081 46.2H7.4081L7.38375 27H66.1838L66.2081 46.2ZM120.843 73.6799H96.843L96.8545 82.7999H126.255L126.279 102H72.8789L72.7838 27H125.584L122.608 46.2H96.8081L96.8209 56.28H120.821L120.843 73.6799ZM180.552 102L162.158 75.3599C161.517 74.4799 161.114 72.5599 160.951 69.5999H160.471L160.512 102H136.512L136.417 27H158.977L177.37 53.64C178.011 54.52 178.414 56.44 178.578 59.4H179.058L179.017 27L203.017 27L203.112 102H180.552ZM268.474 46.2H251.074L251.145 102H227.145L227.074 46.2H209.674L209.649 27H268.449L268.474 46.2Z"/>
</mask>
<path d="M66.2081 46.2H48.8081L48.8789 102H24.8789L24.8081 46.2H7.4081L7.38375 27H66.1838L66.2081 46.2ZM120.843 73.6799H96.843L96.8545 82.7999H126.255L126.279 102H72.8789L72.7838 27H125.584L122.608 46.2H96.8081L96.8209 56.28H120.821L120.843 73.6799ZM180.552 102L162.158 75.3599C161.517 74.4799 161.114 72.5599 160.951 69.5999H160.471L160.512 102H136.512L136.417 27H158.977L177.37 53.64C178.011 54.52 178.414 56.44 178.578 59.4H179.058L179.017 27L203.017 27L203.112 102H180.552ZM268.474 46.2H251.074L251.145 102H227.145L227.074 46.2H209.674L209.649 27H268.449L268.474 46.2Z" fill="#25FD1E"/>
<path d="M66.2081 46.2L66.2097 47.4234H67.4331L67.4315 46.2H66.2081ZM48.8081 46.2L48.8066 44.9766H47.5832L47.5847 46.2H48.8081ZM48.8789 102L48.8804 103.223H50.1038L50.1023 102H48.8789ZM24.8789 102H23.6555L23.657 103.223H24.8804L24.8789 102ZM24.8081 46.2H26.0315L26.0299 44.9766H24.8065L24.8081 46.2ZM7.4081 46.2H6.1847L6.18625 47.4234H7.40965L7.4081 46.2ZM7.38375 27L7.3822 25.7766H6.1588L6.16035 27H7.38375ZM66.1838 27H67.4072L67.4056 25.7766H66.1822L66.1838 27ZM66.2066 44.9766H48.8066L48.8097 47.4234H66.2097L66.2066 44.9766ZM47.5847 46.2L47.6555 102H50.1023L50.0315 46.2H47.5847ZM48.8773 100.777H24.8773L24.8804 103.223H48.8804L48.8773 100.777ZM26.1023 102L26.0315 46.2H23.5847L23.6555 102H26.1023ZM24.8065 44.9766H7.40654L7.40965 47.4234H24.8096L24.8065 44.9766ZM8.6315 46.2L8.60715 27H6.16035L6.1847 46.2H8.6315ZM7.3853 28.2234H66.1853L66.1822 25.7766H7.3822L7.3853 28.2234ZM64.9604 27L64.9847 46.2H67.4315L67.4072 27H64.9604ZM120.843 73.6799L120.845 74.9033H122.068L122.066 73.6799H120.843ZM96.843 73.6799L96.8414 72.4565H95.618L95.6196 73.6799H96.843ZM96.8545 82.7999H95.6311L95.6327 84.0233H96.8561L96.8545 82.7999ZM126.255 82.7999H127.478L127.476 81.5765H126.253L126.255 82.7999ZM126.279 102L126.28 103.223H127.504L127.502 102H126.279ZM72.8789 102H71.6555L71.657 103.223H72.8804L72.8789 102ZM72.7838 27L72.7822 25.7766H71.5588L71.5604 27H72.7838ZM125.584 27L126.793 27.1888L127.012 25.7766H125.582L125.584 27ZM122.608 46.2L122.61 47.4234H123.657L123.817 46.3888L122.608 46.2ZM96.8081 46.2L96.8066 44.9766H95.5832L95.5847 46.2H96.8081ZM96.8209 56.28H95.5975L95.599 57.5034H96.8224L96.8209 56.28ZM120.821 56.28H122.044L122.043 55.0566H120.819L120.821 56.28ZM120.841 72.4565H96.8414L96.8445 74.9033H120.845L120.841 72.4565ZM95.6196 73.6799L95.6311 82.7999H98.0779L98.0663 73.6799H95.6196ZM96.8561 84.0233H126.256L126.253 81.5765H96.853L96.8561 84.0233ZM125.031 82.7999L125.055 102H127.502L127.478 82.7999H125.031ZM126.277 100.777H72.8773L72.8804 103.223H126.28L126.277 100.777ZM74.1023 102L74.0072 27H71.5604L71.6555 102H74.1023ZM72.7853 28.2234H125.585L125.582 25.7766H72.7822L72.7853 28.2234ZM124.375 26.8111L121.399 46.0111L123.817 46.3888L126.793 27.1888L124.375 26.8111ZM122.607 44.9766H96.8066L96.8097 47.4234H122.61L122.607 44.9766ZM95.5847 46.2L95.5975 56.28H98.0443L98.0315 46.2H95.5847ZM96.8224 57.5034H120.822L120.819 55.0566H96.8193L96.8224 57.5034ZM119.597 56.28L119.62 73.6799H122.066L122.044 56.28H119.597ZM180.552 102L179.545 102.694L179.911 103.223H180.553L180.552 102ZM162.158 75.3599L163.164 74.6657L163.156 74.6529L163.146 74.6404L162.158 75.3599ZM160.951 69.5999L162.172 69.5339L162.108 68.3766H160.949L160.951 69.5999ZM160.471 69.5999L160.469 68.3766H159.246L159.247 69.5999H160.471ZM160.512 102L160.513 103.223H161.737L161.735 102H160.512ZM136.512 102H135.288L135.29 103.223H136.513L136.512 102ZM136.417 27L136.415 25.7766H135.192L135.193 27H136.417ZM158.977 27L159.983 26.3057L159.618 25.7766H158.975L158.977 27ZM177.37 53.64L176.364 54.3342L176.373 54.347L176.382 54.3595L177.37 53.64ZM178.578 59.4L177.356 59.466L177.42 60.6234H178.579L178.578 59.4ZM179.058 59.4L179.059 60.6234H180.283L180.281 59.4H179.058ZM179.017 27L179.015 25.7766H177.792L177.793 27H179.017ZM203.017 27H204.24L204.238 25.7766H203.015L203.017 27ZM203.112 102L203.113 103.223H204.337L204.335 102H203.112ZM181.558 101.306L163.164 74.6657L161.151 76.0542L179.545 102.694L181.558 101.306ZM163.146 74.6404C162.98 74.4116 162.762 73.9154 162.573 73.0104C162.389 72.1331 162.252 70.98 162.172 69.5339L159.729 69.666C159.813 71.1799 159.959 72.4668 160.178 73.5095C160.391 74.5245 160.695 75.4283 161.169 76.0795L163.146 74.6404ZM160.949 68.3766H160.469L160.472 70.8233H160.952L160.949 68.3766ZM159.247 69.5999L159.288 102H161.735L161.694 69.5999H159.247ZM160.51 100.777H136.51L136.513 103.223H160.513L160.51 100.777ZM137.735 102L137.64 27H135.193L135.288 102H137.735ZM136.418 28.2234H158.978L158.975 25.7766H136.415L136.418 28.2234ZM157.97 27.6942L176.364 54.3342L178.377 52.9457L159.983 26.3057L157.97 27.6942ZM176.382 54.3595C176.549 54.5883 176.766 55.0845 176.956 55.9895C177.14 56.8668 177.276 58.0199 177.356 59.466L179.799 59.3339C179.715 57.82 179.569 56.5331 179.35 55.4904C179.138 54.4754 178.833 53.5716 178.359 52.9204L176.382 54.3595ZM178.579 60.6234H179.059L179.056 58.1766H178.576L178.579 60.6234ZM180.281 59.4L180.24 27H177.793L177.834 59.4H180.281ZM179.018 28.2234L203.018 28.2234L203.015 25.7766L179.015 25.7766L179.018 28.2234ZM201.793 27L201.888 102H204.335L204.24 27H201.793ZM203.11 100.777H180.55L180.553 103.223H203.113L203.11 100.777ZM268.474 46.2L268.475 47.4234H269.699L269.697 46.2H268.474ZM251.074 46.2L251.072 44.9766H249.849L249.85 46.2H251.074ZM251.145 102L251.146 103.223H252.369L252.368 102H251.145ZM227.145 102H225.921L225.923 103.223H227.146L227.145 102ZM227.074 46.2H228.297L228.296 44.9766H227.072L227.074 46.2ZM209.674 46.2H208.45L208.452 47.4234H209.675L209.674 46.2ZM209.649 27L209.648 25.7766H208.424L208.426 27H209.649ZM268.449 27H269.673L269.671 25.7766H268.448L268.449 27ZM268.472 44.9766H251.072L251.075 47.4234H268.475L268.472 44.9766ZM249.85 46.2L249.921 102H252.368L252.297 46.2H249.85ZM251.143 100.777H227.143L227.146 103.223H251.146L251.143 100.777ZM228.368 102L228.297 46.2H225.85L225.921 102H228.368ZM227.072 44.9766H209.672L209.675 47.4234H227.075L227.072 44.9766ZM210.897 46.2L210.873 27H208.426L208.45 46.2H210.897ZM209.651 28.2234H268.451L268.448 25.7766H209.648L209.651 28.2234ZM267.226 27L267.25 46.2H269.697L269.673 27H267.226Z" fill="black" mask="url(#path-3-outside-2_2861_11480)"/>
<mask id="path-5-outside-3_2861_11480" maskUnits="userSpaceOnUse" x="-0.468299" y="25" width="264.1" height="78.9999" fill="black">
<rect fill="white" x="-0.468299" y="25" width="264.1" height="78.9999"/>
<path d="M59.9586 46.2H42.5586L42.6293 102H18.6293L18.5586 46.2H1.15858L1.13424 27H59.9342L59.9586 46.2ZM114.593 73.6799H90.5934L90.605 82.7999H120.005L120.029 102H66.6293L66.5342 27H119.334L116.359 46.2H90.5586L90.5714 56.28H114.571L114.593 73.6799ZM174.302 102L155.908 75.3599C155.267 74.4799 154.865 72.5599 154.701 69.5999H154.221L154.262 102H130.262L130.167 27H152.727L171.121 53.64C171.762 54.52 172.164 56.44 172.328 59.4H172.808L172.767 27L196.767 27L196.862 102H174.302ZM262.224 46.2H244.824L244.895 102H220.895L220.824 46.2H203.424L203.4 27H262.2L262.224 46.2Z"/>
</mask>
<path d="M59.9586 46.2H42.5586L42.6293 102H18.6293L18.5586 46.2H1.15858L1.13424 27H59.9342L59.9586 46.2ZM114.593 73.6799H90.5934L90.605 82.7999H120.005L120.029 102H66.6293L66.5342 27H119.334L116.359 46.2H90.5586L90.5714 56.28H114.571L114.593 73.6799ZM174.302 102L155.908 75.3599C155.267 74.4799 154.865 72.5599 154.701 69.5999H154.221L154.262 102H130.262L130.167 27H152.727L171.121 53.64C171.762 54.52 172.164 56.44 172.328 59.4H172.808L172.767 27L196.767 27L196.862 102H174.302ZM262.224 46.2H244.824L244.895 102H220.895L220.824 46.2H203.424L203.4 27H262.2L262.224 46.2Z" fill="#FF5722"/>
<path d="M59.9586 46.2L59.9601 47.4234H61.1835L61.182 46.2H59.9586ZM42.5586 46.2L42.557 44.9766H41.3336L41.3352 46.2H42.5586ZM42.6294 102L42.6309 103.223H43.8543L43.8527 102H42.6294ZM18.6293 102H17.4059L17.4075 103.223H18.6309L18.6293 102ZM18.5586 46.2H19.782L19.7804 44.9766H18.557L18.5586 46.2ZM1.15858 46.2H-0.0648148L-0.0632635 47.4234H1.16014L1.15858 46.2ZM1.13424 27L1.13269 25.7766H-0.0907129L-0.0891615 27H1.13424ZM59.9342 27H61.1576L61.1561 25.7766H59.9327L59.9342 27ZM59.957 44.9766H42.557L42.5601 47.4234H59.9601L59.957 44.9766ZM41.3352 46.2L41.406 102H43.8527L43.782 46.2H41.3352ZM42.6278 100.777H18.6278L18.6309 103.223H42.6309L42.6278 100.777ZM19.8527 102L19.782 46.2H17.3352L17.4059 102H19.8527ZM18.557 44.9766H1.15703L1.16014 47.4234H18.5601L18.557 44.9766ZM2.38198 46.2L2.35764 27H-0.0891615L-0.0648148 46.2H2.38198ZM1.13579 28.2234H59.9358L59.9327 25.7766H1.13269L1.13579 28.2234ZM58.7108 27L58.7352 46.2H61.182L61.1576 27H58.7108ZM114.593 73.6799L114.595 74.9033H115.818L115.817 73.6799H114.593ZM90.5934 73.6799L90.5919 72.4565H89.3685L89.37 73.6799H90.5934ZM90.605 82.7999H89.3816L89.3832 84.0233H90.6066L90.605 82.7999ZM120.005 82.7999H121.228L121.227 81.5765H120.003L120.005 82.7999ZM120.029 102L120.031 103.223H121.254L121.253 102H120.029ZM66.6293 102H65.406L65.4075 103.223H66.6309L66.6293 102ZM66.5342 27L66.5327 25.7766H65.3093L65.3108 27H66.5342ZM119.334 27L120.543 27.1888L120.762 25.7766H119.333L119.334 27ZM116.359 46.2L116.36 47.4234H117.407L117.568 46.3888L116.359 46.2ZM90.5586 46.2L90.557 44.9766H89.3336L89.3352 46.2H90.5586ZM90.5714 56.28H89.348L89.3495 57.5034H90.5729L90.5714 56.28ZM114.571 56.28H115.795L115.793 55.0566H114.57L114.571 56.28ZM114.592 72.4565H90.5919L90.595 74.9033H114.595L114.592 72.4565ZM89.37 73.6799L89.3816 82.7999H91.8284L91.8168 73.6799H89.37ZM90.6066 84.0233H120.007L120.003 81.5765H90.6035L90.6066 84.0233ZM118.782 82.7999L118.806 102H121.253L121.228 82.7999H118.782ZM120.028 100.777H66.6278L66.6309 103.223H120.031L120.028 100.777ZM67.8527 102L67.7576 27H65.3108L65.406 102H67.8527ZM66.5358 28.2234H119.336L119.333 25.7766H66.5327L66.5358 28.2234ZM118.125 26.8111L115.15 46.0111L117.568 46.3888L120.543 27.1888L118.125 26.8111ZM116.357 44.9766H90.557L90.5601 47.4234H116.36L116.357 44.9766ZM89.3352 46.2L89.348 56.28H91.7948L91.782 46.2H89.3352ZM90.5729 57.5034H114.573L114.57 55.0566H90.5698L90.5729 57.5034ZM113.348 56.28L113.37 73.6799H115.817L115.795 56.28H113.348ZM174.302 102L173.296 102.694L173.661 103.223H174.304L174.302 102ZM155.908 75.3599L156.915 74.6657L156.906 74.6529L156.897 74.6404L155.908 75.3599ZM154.701 69.5999L155.923 69.5339L155.859 68.3766H154.7L154.701 69.5999ZM154.221 69.5999L154.22 68.3766H152.996L152.998 69.5999H154.221ZM154.262 102L154.264 103.223H155.487L155.486 102H154.262ZM130.262 102H129.039L129.04 103.223H130.264L130.262 102ZM130.167 27L130.166 25.7766H128.942L128.944 27H130.167ZM152.727 27L153.734 26.3057L153.368 25.7766H152.726L152.727 27ZM171.121 53.64L170.114 54.3342L170.123 54.347L170.132 54.3595L171.121 53.64ZM172.328 59.4L171.107 59.466L171.171 60.6234H172.33L172.328 59.4ZM172.808 59.4L172.81 60.6234H174.033L174.032 59.4H172.808ZM172.767 27L172.766 25.7766H171.542L171.544 27H172.767ZM196.767 27H197.99L197.989 25.7766H196.766L196.767 27ZM196.862 102L196.864 103.223H198.087L198.086 102H196.862ZM175.309 101.306L156.915 74.6657L154.902 76.0542L173.296 102.694L175.309 101.306ZM156.897 74.6404C156.73 74.4116 156.513 73.9154 156.323 73.0104C156.139 72.1331 156.003 70.98 155.923 69.5339L153.48 69.666C153.563 71.1799 153.71 72.4668 153.928 73.5095C154.141 74.5245 154.445 75.4283 154.92 76.0795L156.897 74.6404ZM154.7 68.3766H154.22L154.223 70.8233H154.703L154.7 68.3766ZM152.998 69.5999L153.039 102H155.486L155.444 69.5999H152.998ZM154.261 100.777H130.261L130.264 103.223H154.264L154.261 100.777ZM131.486 102L131.39 27H128.944L129.039 102H131.486ZM130.169 28.2234H152.729L152.726 25.7766H130.166L130.169 28.2234ZM151.721 27.6942L170.114 54.3342L172.127 52.9457L153.734 26.3057L151.721 27.6942ZM170.132 54.3595C170.299 54.5883 170.516 55.0845 170.706 55.9895C170.89 56.8668 171.027 58.0199 171.107 59.466L173.55 59.3339C173.466 57.82 173.319 56.5331 173.101 55.4904C172.888 54.4754 172.584 53.5716 172.109 52.9204L170.132 54.3595ZM172.33 60.6234H172.81L172.807 58.1766H172.327L172.33 60.6234ZM174.032 59.4L173.99 27H171.544L171.585 59.4H174.032ZM172.769 28.2234L196.769 28.2234L196.766 25.7766L172.766 25.7766L172.769 28.2234ZM195.544 27L195.639 102H198.086L197.99 27H195.544ZM196.861 100.777H174.301L174.304 103.223H196.864L196.861 100.777ZM262.224 46.2L262.226 47.4234H263.449L263.448 46.2H262.224ZM244.824 46.2L244.823 44.9766H243.599L243.601 46.2H244.824ZM244.895 102L244.897 103.223H246.12L246.118 102H244.895ZM220.895 102H219.672L219.673 103.223H220.897L220.895 102ZM220.824 46.2H222.048L222.046 44.9766H220.823L220.824 46.2ZM203.424 46.2H202.201L202.202 47.4234H203.426L203.424 46.2ZM203.4 27L203.398 25.7766H202.175L202.176 27H203.4ZM262.2 27H263.423L263.422 25.7766H262.198L262.2 27ZM262.223 44.9766H244.823L244.826 47.4234H262.226L262.223 44.9766ZM243.601 46.2L243.672 102H246.118L246.048 46.2H243.601ZM244.893 100.777H220.893L220.897 103.223H244.897L244.893 100.777ZM222.118 102L222.048 46.2H219.601L219.672 102H222.118ZM220.823 44.9766H203.423L203.426 47.4234H220.826L220.823 44.9766ZM204.648 46.2L204.623 27H202.176L202.201 46.2H204.648ZM203.401 28.2234H262.201L262.198 25.7766H203.398L203.401 28.2234ZM260.976 27L261.001 46.2H263.448L263.423 27H260.976Z" fill="black" mask="url(#path-5-outside-3_2861_11480)"/>
</svg>
